<svg width="48" height="48" viewBox="0 0 48 48" fill="none" xmlns="http://www.w3.org/2000/svg">
  <rect width="48" height="48" rx="10" fill="#5865F2"/>
  <path d="M33.42 16.78A18.6 18.6 0 0 0 28.7 15.3c-.2.36-.44.85-.6 1.23a17.3 17.3 0 0 0-5.18 0c-.16-.38-.4-.87-.6-1.23-1.66.29-3.25.78-4.71 1.48-2.98 4.49-3.79 8.86-3.39 13.18a19 19 0 0 0 5.79 2.94c.46-.64.87-1.31 1.23-2.02-.67-.25-1.32-.57-1.92-.93.16-.12.32-.25.47-.37 3.7 1.7 7.71 1.7 11.36 0 .16.13.31.25.47.37-.6.36-1.25.68-1.92.93.36.71.77 1.39 1.23 2.02a19 19 0 0 0 5.79-2.94c.47-5 -0.83-9.34-3.36-13.18zm-11.78 10.5c-1.13 0-2.06-1.05-2.06-2.34s.91-2.34 2.06-2.34c1.16 0 2.08 1.05 2.06 2.34 0 1.29-.91 2.34-2.06 2.34zm7.62 0c-1.13 0-2.06-1.05-2.06-2.34s.91-2.34 2.06-2.34c1.16 0 2.08 1.05 2.06 2.34 0 1.29-.9 2.34-2.06 2.34z" fill="#fff"/>
</svg>
