<svg width="48" height="48" viewBox="0 0 48 48" fill="none" xmlns="http://www.w3.org/2000/svg">
  <rect width="48" height="48" rx="10" fill="#fff"/>
  <path d="M17.49 27.5a2.25 2.25 0 1 1-2.25-2.25h2.25v2.25zm1.13 0a2.25 2.25 0 1 1 4.5 0v5.63a2.25 2.25 0 1 1-4.5 0V27.5z" fill="#E01E5A"/>
  <path d="M20.87 18.46a2.25 2.25 0 1 1 2.25-2.25v2.25h-2.25zm0 1.16a2.25 2.25 0 1 1 0 4.5h-5.65a2.25 2.25 0 1 1 0-4.5h5.65z" fill="#36C5F0"/>
  <path d="M30.51 21.87a2.25 2.25 0 1 1 2.25 2.25h-2.25v-2.25zm-1.13 0a2.25 2.25 0 1 1-4.5 0v-5.62a2.25 2.25 0 1 1 4.5 0v5.62z" fill="#2EB67D"/>
  <path d="M27.13 30.92a2.25 2.25 0 1 1-2.25 2.25v-2.25h2.25zm0-1.16a2.25 2.25 0 1 1 0-4.5h5.62a2.25 2.25 0 1 1 0 4.5h-5.62z" fill="#ECB22E"/>
</svg>
