<svg width="48" height="48" viewBox="0 0 48 48" fill="none" xmlns="http://www.w3.org/2000/svg">
  <rect width="48" height="48" rx="10" fill="#0ABE14"/>
  <path d="M19.55 13c-5.4 0-9.8 3.65-9.8 8.13 0 2.59 1.49 4.9 3.79 6.4-.1.3-.6 1.78-.69 1.99-.1.27-.4 1.06.4.41.78-.65 2.18-1.59 2.43-1.78.92.27 1.91.42 2.94.43-.18-.6-.27-1.22-.27-1.86 0-4.42 4.03-7.98 9-7.98.18 0 .36.01.54.02-.83-3.36-4.42-5.76-8.34-5.76zm-3.07 4.22a1.11 1.11 0 1 1 0 2.21 1.11 1.11 0 0 1 0-2.21zm6.13 0a1.11 1.11 0 1 1 0 2.21 1.11 1.11 0 0 1 0-2.21z" fill="#fff"/>
  <path d="M37 26.74c0-3.86-3.84-7-8.58-7s-8.58 3.14-8.58 7 3.84 7 8.58 7c.91 0 1.79-.12 2.62-.34.21.16 1.41 1.04 2.07 1.55.7.55.43-.13.34-.36-.07-.18-.51-1.45-.6-1.7 1.93-1.27 3.16-3.13 3.16-5.15zm-11.34-1.16a.97.97 0 1 1 0-1.94.97.97 0 0 1 0 1.94zm5.52 0a.97.97 0 1 1 0-1.94.97.97 0 0 1 0 1.94z" fill="#fff"/>
</svg>
