<svg width="48" height="48" viewBox="0 0 48 48" fill="none" xmlns="http://www.w3.org/2000/svg">
  <rect width="48" height="48" rx="10" fill="#FF0033"/>
  <path d="M34.6 18.27a2.78 2.78 0 0 0-1.95-1.96C30.93 15.83 24 15.83 24 15.83s-6.93 0-8.65.46a2.78 2.78 0 0 0-1.95 1.96 29.1 29.1 0 0 0-.46 5.36c0 1.79.16 3.58.46 5.36a2.78 2.78 0 0 0 1.95 1.94c1.72.46 8.65.46 8.65.46s6.93 0 8.65-.46a2.78 2.78 0 0 0 1.95-1.94 29.1 29.1 0 0 0 .46-5.36c0-1.79-.16-3.58-.46-5.38zM21.78 26.94v-6.61l5.78 3.3-5.78 3.31z" fill="#fff"/>
</svg>
