<svg width="201" height="30" viewBox="0 0 201 30" fill="none" xmlns="http://www.w3.org/2000/svg">
<path d="M88.8533 10.6798H85.2633L82.6435 15.2836L79.7354 10.6798H75.6827L80.2865 17.97L75.5071 25.8986H79.1637L82.2244 20.7667L85.4619 25.8986H89.5364L84.5584 18.0584L88.8533 10.6798Z" fill="black"/>
<path d="M68.591 10.372C64.2077 10.372 62.116 13.7416 62.116 18.3442C62.116 23.6299 64.7152 26.2073 69.3178 26.2073C71.63 26.2073 73.3257 25.6126 74.383 24.8859V21.9342C73.2602 22.6827 71.3877 23.3658 69.6255 23.3658C66.9826 23.3658 65.9918 22.111 65.8368 19.5772H74.5369V17.6611C74.5369 12.3754 72.2029 10.3709 68.5899 10.3709L68.591 10.372ZM70.8596 16.9126H65.838C65.9264 14.4902 66.807 13.2124 68.5474 13.2124C70.2879 13.2124 70.8596 14.6876 70.8596 16.6037V16.9126Z" fill="black"/>
<path d="M56.2142 12.4639C55.3106 11.0988 53.9674 10.3721 52.4037 10.3721C48.9021 10.3721 46.4797 13.3674 46.4797 18.389C46.4797 23.4107 48.8585 26.2073 52.2499 26.2073C53.9456 26.2073 55.3336 25.414 56.3026 23.9388L56.4782 25.8985H59.8042V4.86597H56.2142V12.4639ZM53.1534 23.3659C51.1937 23.3659 50.2247 22.0008 50.2247 18.389C50.2247 14.7772 51.2373 13.2135 53.3084 13.2135C55.2464 13.2135 56.2153 14.7336 56.2153 18.2788C56.2153 21.824 55.1798 23.3659 53.1534 23.3659Z" fill="black"/>
<path d="M39.9158 10.4375C37.7574 10.4375 36.5026 11.2079 35.7747 11.9346H35.5761L35.4877 10.6797H31.9861V25.8985H35.5761V14.9747C36.2592 14.1595 37.3165 13.4546 38.615 13.4546C39.9135 13.4546 40.4645 14.0057 40.4645 15.1503V25.8985H44.0545V14.7978C44.0545 11.7589 42.8433 10.4375 39.9135 10.4375H39.9158Z" fill="black"/>
<path d="M29.0371 15.5257C29.0371 11.8255 27.1646 10.4386 23.3554 10.4386C20.9984 10.4168 19.0823 11.4294 17.9813 12.2227V15.3282C19.1489 14.4029 20.8882 13.3019 22.9363 13.3019C24.6538 13.3019 25.4471 13.9184 25.4471 15.5486V16.5176H24.8743C19.3463 16.5176 16.9021 18.3017 16.9021 21.4727C16.9021 24.4243 18.7746 26.12 21.5713 26.12C23.686 26.12 24.5884 25.4151 25.2933 24.6884H25.4471C25.469 25.0845 25.601 25.5919 25.7112 25.8996H29.2346C29.1026 24.6666 29.036 23.4106 29.036 22.1776V15.5268L29.0371 15.5257ZM25.4471 22.2648C24.9845 22.9479 24.1475 23.476 22.8709 23.476C21.3508 23.476 20.6023 22.5955 20.6023 21.274C20.6023 19.5118 21.8353 18.9171 24.919 18.9171H25.4471V22.2648Z" fill="black"/>
<path d="M14.7204 4.86597L10.228 15.0413H13.9719L18.4424 4.86597H14.7204Z" fill="black"/>
<path d="M4.81043 4.86595H1L7.91594 19.8861V25.8985H11.5714V22.3303C11.5714 19.6438 11.2407 18.8505 10.2063 16.6038L4.81043 4.86595Z" fill="black"/>
<path d="M137.232 26.1517C134.61 26.1517 132.563 25.2239 131.09 23.3682C129.618 21.4925 128.882 18.82 128.882 15.3508C128.882 13.6767 129.063 12.174 129.426 10.8428C129.81 9.49144 130.364 8.35185 131.09 7.42404C131.817 6.47606 132.714 5.76003 133.783 5.27596C134.872 4.77171 136.113 4.51959 137.504 4.51959C138.473 4.51959 139.34 4.66078 140.106 4.94316C140.873 5.20536 141.498 5.50791 141.982 5.8508V8.7855C141.438 8.44261 140.792 8.1199 140.046 7.81735C139.32 7.5148 138.533 7.36353 137.686 7.36353C135.891 7.36353 134.59 8.01905 133.783 9.33008C132.996 10.6209 132.603 12.6278 132.603 15.3508C132.603 17.993 132.996 19.9797 133.783 21.3109C134.59 22.6421 135.83 23.3077 137.504 23.3077C138.473 23.3077 139.31 23.1665 140.016 22.8842C140.721 22.5816 141.377 22.2085 141.982 21.7647V24.6994C141.518 25.0222 140.893 25.3449 140.106 25.6676C139.34 25.9903 138.382 26.1517 137.232 26.1517Z" fill="black"/>
<path d="M148.008 25.8491H144.407V4.82214H148.008V25.8491Z" fill="black"/>
<path d="M157.137 10.3285C158.125 10.3285 159.033 10.4999 159.86 10.8428C160.687 11.1857 161.393 11.7 161.978 12.3858C162.563 13.0514 163.017 13.8784 163.339 14.8667C163.682 15.8348 163.854 16.9543 163.854 18.225C163.854 19.4956 163.682 20.6252 163.339 21.6135C163.017 22.6018 162.563 23.4388 161.978 24.1246C161.393 24.7902 160.687 25.2945 159.86 25.6373C159.033 25.9802 158.125 26.1517 157.137 26.1517C156.149 26.1517 155.241 25.9802 154.414 25.6373C153.587 25.2945 152.881 24.7902 152.296 24.1246C151.711 23.4388 151.248 22.6119 150.905 21.6437C150.582 20.6554 150.421 19.5259 150.421 18.2552C150.421 16.9845 150.582 15.855 150.905 14.8667C151.248 13.8784 151.711 13.0514 152.296 12.3858C152.881 11.7 153.587 11.1857 154.414 10.8428C155.241 10.4999 156.149 10.3285 157.137 10.3285ZM157.137 23.3077C158.146 23.3077 158.892 22.9043 159.376 22.0975C159.88 21.2908 160.132 19.9999 160.132 18.225C160.132 16.45 159.88 15.1692 159.376 14.3826C158.892 13.5758 158.146 13.1724 157.137 13.1724C156.129 13.1724 155.372 13.5758 154.868 14.3826C154.384 15.1894 154.142 16.4803 154.142 18.2552C154.142 20.0301 154.384 21.321 154.868 22.1278C155.372 22.9144 156.129 23.3077 157.137 23.3077Z" fill="black"/>
<path d="M174.591 10.631H178.191V25.8491H174.682L174.591 24.5784H174.41C174.047 24.9415 173.532 25.2844 172.867 25.6071C172.221 25.9298 171.354 26.0912 170.265 26.0912C168.792 26.0912 167.733 25.7483 167.088 25.0625C166.443 24.3566 166.12 23.2472 166.12 21.7345V10.631H169.72V21.3714C169.72 22.5009 170.335 23.0657 171.566 23.0657C172.211 23.0657 172.786 22.9144 173.29 22.6119C173.815 22.3093 174.248 21.9564 174.591 21.553V10.631Z" fill="black"/>
<path d="M190.419 23.8826C189.43 25.3953 188.079 26.1517 186.364 26.1517C185.517 26.1517 184.741 25.9802 184.035 25.6373C183.329 25.2945 182.724 24.7902 182.22 24.1246C181.715 23.459 181.322 22.6421 181.04 21.674C180.757 20.7058 180.616 19.5965 180.616 18.346C180.616 17.0753 180.757 15.9458 181.04 14.9574C181.342 13.949 181.746 13.1119 182.25 12.4463C182.774 11.7605 183.4 11.2361 184.126 10.8731C184.852 10.51 185.648 10.3285 186.516 10.3285C188.089 10.3285 189.36 11.0243 190.328 12.4161V4.82214H193.928V25.8491H190.6L190.419 23.8826ZM187.423 13.1724C186.395 13.1724 185.618 13.5859 185.094 14.4129C184.59 15.2197 184.337 16.5307 184.337 18.346C184.337 20.0806 184.579 21.3412 185.064 22.1278C185.548 22.9144 186.284 23.3077 187.272 23.3077C188.26 23.3077 189.007 22.9346 189.511 22.1883C190.015 21.4219 190.288 20.1915 190.328 18.4972V17.7106C190.288 16.1374 190.025 14.9877 189.541 14.2616C189.057 13.5355 188.351 13.1724 187.423 13.1724Z" fill="black"/>
<path d="M116.348 26.2439C113.701 28.0561 110.508 27.9619 104.1 28.0001L99.0129 27.9915L101.587 21.0594L105.4 21.0522C108.502 21.0591 110.353 20.8239 111.858 19.7464C113.323 18.6972 114.215 17.0842 115.287 14.1736L116.62 10.6005L124.014 10.5975L122.24 15.3502C119.99 21.3652 118.968 24.3912 116.348 26.2439Z" fill="#2A9FFF"/>
<path d="M101.553 4.75625C104.201 2.94409 107.393 3.03821 113.801 3.00005L118.888 3.00864L116.314 9.9407L112.501 9.94792C109.399 9.941 107.548 10.1763 106.043 11.2537C104.578 12.303 103.686 13.916 102.614 16.8266L101.281 20.3996L93.8867 20.4026L95.6615 15.65C97.9111 9.63494 98.9329 6.60894 101.553 4.75625Z" fill="#2A9FFF"/>
</svg>
